<?xml version="1.0" standalone="no"?>
<!DOCTYPE svg PUBLIC "-//W3C//DTD SVG 20010904//EN"
 "http://www.w3.org/TR/2001/REC-SVG-20010904/DTD/svg10.dtd">
<svg version="1.0" xmlns="http://www.w3.org/2000/svg"
 width="339.000000pt" height="149.000000pt" viewBox="0 0 339.000000 149.000000"
 preserveAspectRatio="xMidYMid meet">

<g transform="translate(0.000000,149.000000) scale(0.100000,-0.100000)"
fill="#000000" stroke="none">
<path d="M1281 1149 c-18 -4 -46 -20 -61 -36 -34 -34 -280 -605 -280 -649 0
-35 30 -87 63 -109 58 -38 146 -24 180 29 27 41 267 612 267 635 0 33 -29 90
-55 107 -35 23 -77 31 -114 23z"/>
<path d="M1904 1129 c-173 -54 -274 -198 -274 -388 0 -204 106 -347 295 -397
62 -17 187 -18 254 -2 50 11 51 12 51 49 0 65 -4 69 -61 52 -69 -20 -201 -14
-254 12 -103 50 -165 158 -165 285 0 126 52 220 151 275 50 28 62 30 154 30
77 0 108 -4 133 -18 l32 -18 0 24 c0 14 3 38 6 55 6 30 5 31 -47 46 -73 22
-199 20 -275 -5z"/>
<path d="M2360 740 l0 -401 58 3 57 3 3 183 2 182 145 0 145 0 0 45 0 45 -145
0 -145 0 0 120 0 120 155 0 155 0 0 50 0 50 -215 0 -215 0 0 -400z"/>
<path d="M2940 740 l0 -400 55 0 55 0 0 400 0 400 -55 0 -55 0 0 -400z"/>
<path d="M906 1039 c-15 -4 -36 -15 -47 -25 -28 -25 -242 -532 -243 -575 -1
-75 73 -132 144 -110 20 6 45 21 57 33 33 38 237 528 236 569 0 39 -25 83 -51
94 -42 17 -69 21 -96 14z"/>
<path d="M564 904 c-17 -8 -37 -27 -44 -42 -73 -159 -180 -418 -180 -437 0
-14 13 -39 29 -57 22 -24 37 -32 63 -32 65 0 77 17 176 246 50 118 92 225 92
237 0 37 -28 78 -61 90 -40 14 -37 14 -75 -5z"/>
</g>
</svg>
